<?xml version="1.0" standalone="no"?>
<!DOCTYPE svg PUBLIC "-//W3C//DTD SVG 20010904//EN"
 "http://www.w3.org/TR/2001/REC-SVG-20010904/DTD/svg10.dtd">
<svg version="1.0" xmlns="http://www.w3.org/2000/svg"
 width="500.000000pt" height="500.000000pt" viewBox="0 0 500.000000 500.000000"
 preserveAspectRatio="xMidYMid meet">

<g transform="translate(0.000000,500.000000) scale(0.100000,-0.100000)"
fill="#000000" stroke="none">
<path d="M2028 4885 c-299 -47 -585 -259 -720 -535 -85 -174 -98 -247 -98
-547 l0 -243 109 0 109 0 5 243 c5 275 10 306 83 453 53 109 152 221 253 288
64 43 181 95 245 110 28 7 26 4 -27 -54 -120 -129 -205 -279 -249 -437 -21
-75 -22 -100 -26 -575 l-3 -497 -32 -20 c-81 -50 -126 -131 -127 -227 0 -131
100 -239 231 -251 153 -14 279 101 279 254 0 78 -29 140 -90 197 l-42 38 4
477 4 476 28 90 c48 158 140 293 264 389 58 44 191 116 215 116 28 0 156 -70
217 -119 121 -96 204 -214 256 -366 27 -78 28 -87 32 -332 l4 -253 115 0 116
0 -6 248 c-4 222 -7 257 -30 343 -46 174 -124 315 -245 442 -36 37 -61 67 -55
67 5 0 39 -9 74 -21 258 -84 449 -291 515 -559 17 -69 19 -115 16 -544 l-3
-470 -38 -33 c-128 -109 -104 -320 46 -409 42 -26 58 -29 128 -29 71 0 85 3
123 28 85 55 124 117 130 209 7 97 -39 186 -124 238 l-34 22 0 432 c0 239 -5
469 -10 515 -34 269 -193 531 -414 683 -85 59 -227 123 -331 149 -106 27 -309
32 -415 11 -55 -11 -79 -11 -160 2 -113 19 -204 19 -322 1z"/>
<path d="M497 3550 c-91 -16 -177 -91 -205 -180 -7 -24 -12 -495 -14 -1545
l-3 -1510 28 -57 c31 -64 70 -101 137 -132 40 -18 68 -21 248 -24 111 -2 202
0 202 5 0 5 -16 17 -36 28 -44 24 -91 76 -115 129 -18 39 -19 105 -19 1562 l0
1521 31 62 c31 62 66 96 135 131 l39 19 -190 -1 c-104 0 -212 -4 -238 -8z"/>
<path d="M3470 2044 c-42 -17 -56 -106 -22 -137 26 -24 104 -23 125 1 20 22
22 91 4 116 -13 18 -80 30 -107 20z"/>
<path d="M2882 1994 c-22 -15 -22 -16 -22 -314 0 -298 0 -299 22 -314 32 -23
94 -20 118 4 17 17 20 33 20 125 l0 105 108 0 c59 0 112 4 119 8 36 23 38 123
2 142 -10 6 -65 10 -123 10 l-106 0 0 45 0 45 159 0 c185 0 191 2 191 80 0 80
1 80 -248 80 -181 0 -221 -3 -240 -16z"/>
<path d="M3760 1984 c-29 -12 -40 -38 -40 -101 0 -62 0 -63 -28 -63 -40 0 -52
-17 -52 -75 0 -58 12 -75 52 -75 l28 0 0 -89 c0 -48 5 -103 11 -122 23 -68 80
-109 153 -109 38 0 43 -2 39 -19 -10 -41 20 -32 73 20 41 41 51 56 42 66 -9
11 -14 11 -29 -3 -18 -16 -19 -16 -19 17 0 48 -12 62 -62 68 l-43 6 -3 82 -3
82 50 -2 c64 -3 86 17 86 77 0 61 -16 76 -81 76 l-54 0 0 63 c0 36 -6 71 -13
81 -13 18 -80 30 -107 20z"/>
<path d="M3440 1801 c-6 -12 -10 -99 -10 -213 0 -228 3 -238 76 -238 31 0 50
6 64 20 19 19 20 33 20 219 0 232 0 231 -85 231 -43 0 -56 -4 -65 -19z"/>
<path d="M3647 1423 c-15 -14 -5 -32 44 -73 37 -31 53 -40 62 -31 8 8 -1 24
-38 61 -50 51 -57 55 -68 43z"/>
<path d="M3570 1230 c0 -19 5 -21 72 -18 60 2 73 6 76 21 3 15 -6 17 -72 17
-70 0 -76 -2 -76 -20z"/>
<path d="M3815 1229 c-36 -29 -30 -52 34 -158 28 -45 51 -84 51 -86 0 -2 -9
-1 -20 2 -24 6 -66 -19 -75 -46 -3 -11 1 -33 9 -50 13 -24 37 -38 132 -78 94
-39 121 -54 138 -80 11 -18 27 -33 35 -33 8 0 66 28 129 63 l114 62 -5 88 c-5
83 -8 93 -51 162 -26 40 -53 76 -62 79 -25 9 -72 7 -79 -4 -4 -6 -18 -10 -33
-10 -33 1 -114 -14 -129 -23 -7 -5 -25 16 -48 53 -51 85 -87 100 -140 59z
m102 -74 c63 -100 60 -97 93 -80 16 8 36 12 44 9 9 -4 23 -1 31 6 8 7 29 14
47 15 18 2 49 6 68 9 33 5 33 5 5 -3 l-30 -9 31 -1 c39 -1 54 -17 54 -57 0
-18 5 -36 11 -39 6 -4 14 -17 19 -29 6 -15 9 -16 9 -5 1 9 -6 22 -14 29 -8 7
-15 22 -15 34 0 18 3 17 21 -11 12 -19 23 -59 28 -103 l7 -71 -100 -55 c-74
-40 -102 -51 -107 -42 -19 34 -41 47 -139 88 -58 23 -114 51 -125 61 -18 18
-18 20 -3 35 14 14 23 15 58 6 34 -8 42 -8 47 4 3 8 -25 64 -62 124 -68 113
-76 144 -33 138 15 -2 35 -21 55 -53z"/>
<path d="M4301 934 c0 -11 3 -14 6 -6 3 7 2 16 -1 19 -3 4 -6 -2 -5 -13z"/>
<path d="M3970 1230 c0 -19 5 -21 77 -18 65 3 78 6 81 21 3 15 -6 17 -77 17
-75 0 -81 -2 -81 -20z"/>
<path d="M3667 1091 c-43 -43 -46 -49 -32 -61 14 -12 23 -7 67 37 46 47 56 73
25 73 -7 0 -34 -22 -60 -49z"/>
<path d="M2340 990 c0 -64 3 -80 15 -80 12 0 15 16 15 80 0 64 -3 80 -15 80
-12 0 -15 -16 -15 -80z"/>
<path d="M2383 1058 c2 -7 10 -13 17 -13 7 0 15 6 18 13 2 7 -5 12 -18 12 -13
0 -20 -5 -17 -12z"/>
<path d="M2860 985 c0 -60 3 -75 15 -75 10 0 15 10 15 34 0 41 23 65 45 46 8
-7 15 -28 15 -46 0 -24 5 -34 15 -34 11 0 15 11 15 43 0 54 -26 83 -65 73 -21
-5 -25 -3 -25 14 0 11 -7 20 -15 20 -12 0 -15 -15 -15 -75z"/>
<path d="M2097 1012 c-53 -58 28 -137 83 -82 l20 20 0 -20 c0 -13 7 -20 20
-20 17 0 20 7 20 40 0 28 5 43 16 47 22 8 44 -22 44 -59 0 -18 5 -28 15 -28
20 0 20 68 0 97 -12 18 -25 22 -65 21 -42 0 -50 -3 -50 -19 0 -18 -1 -18 -20
1 -25 25 -62 26 -83 2z m62 -25 c15 -19 -10 -53 -33 -44 -16 6 -22 38 -9 50
10 11 30 8 42 -6z"/>
<path d="M2380 970 c0 -53 2 -60 20 -60 18 0 20 7 20 60 0 53 -2 60 -20 60
-18 0 -20 -7 -20 -60z"/>
<path d="M2430 969 c0 -46 3 -59 15 -59 10 0 15 10 15 34 0 38 19 60 44 50 11
-4 16 -18 16 -45 0 -28 4 -39 15 -39 11 0 15 12 15 44 0 58 -18 76 -75 74
l-45 -1 0 -58z"/>
<path d="M2577 1012 c-48 -53 11 -125 74 -91 27 14 13 31 -21 24 -16 -3 -31
-2 -35 4 -4 7 10 11 39 11 52 0 60 16 26 50 -25 25 -62 26 -83 2z m58 -22 c4
-6 -5 -10 -20 -10 -15 0 -24 4 -20 10 3 6 12 10 20 10 8 0 17 -4 20 -10z"/>
<path d="M2757 1024 c-4 -4 -7 -17 -7 -30 0 -16 9 -25 33 -34 18 -7 26 -14 19
-17 -7 -3 -19 1 -28 7 -17 15 -29 7 -20 -15 8 -21 31 -29 61 -21 39 10 34 52
-7 71 l-33 15 33 -6 c29 -5 33 -3 30 13 -2 13 -13 19 -38 21 -20 2 -39 0 -43
-4z"/>
<path d="M3012 1014 c-43 -30 -17 -104 36 -104 28 0 62 34 62 60 0 25 -34 60
-58 60 -10 0 -28 -7 -40 -16z m58 -30 c11 -12 10 -18 -3 -32 -16 -15 -18 -15
-34 0 -13 14 -14 20 -3 32 7 9 16 16 20 16 4 0 13 -7 20 -16z"/>
<path d="M3120 944 c0 -68 3 -84 15 -84 10 0 15 10 15 29 0 25 3 28 25 23 53
-10 88 64 47 101 -10 9 -34 16 -60 15 l-42 0 0 -84z m88 28 c4 -28 -24 -40
-45 -19 -14 13 -14 19 -3 32 18 22 44 15 48 -13z"/>
</g>
</svg>
